[img]http://img717.imageshack.us/img717/3537/28132510150235505207734.jpg[/img]
The Lord of The Rings Trilogy EXTENDED VERSION BDRip 720p (6CH~AC3)[Dual Audio][Eng-Hindi]~[FIRST ON NET]~[MEGUIL & HD-KING]

[img]http://img692.imageshack.us/img692/7337/lotrcover.jpg[/img]

[img]http://img690.imageshack.us/img690/2252/alllotrcast.jpg[/img]

The Fellowship of the Ring (2001) BDRip 720p(6CH~AC3)[Dual-Audio][Eng-Hindi]~[FIRST ON NET~[MEGUIL & HD-KING]

[img]http://img600.imageshack.us/img600/2523/lotr2001cover.jpg[/img]



  [img]http://img684.imageshack.us/img684/5769/plotjq.png[/img]



Release: The Fellowship of the Ring (2001) BDRip 720p(6CH~AC3)[Dual-Audio][Eng-Hindi]~[FIRST ON NET~[MEGUIL & HD-KING]

Release Date: 19 December 2001 (USA)

Format: Matroska

Format version: Version 2

File size: 3.51 GiB

Overall bit rate: 2 203 Kbps
  
Release Length: 3h 48mn (Special Extended Blu-Ray Edition)

Tagline: A Fellowship Will Protect Him


Storyline
An ancient Ring thought lost for centuries has been found, and through a strange twist in 
fate has been given to a small Hobbit named Frodo. When Gandalf discovers the Ring is in 
fact the One Ring of the Dark Lord Sauron, Frodo must make an epic quest to the Cracks of 
Doom in order to destroy it! However he does not go alone. He is joined by Gandalf, Legolas 
the elf, Gimli the Dwarf, Aragorn, Boromir and his three Hobbit friends Merry, Pippin and 
Samwise. Through mountains, snow, darkness, forests, rivers and plains, facing evil and 
danger at every corner the Fellowship of the Ring must go. Their quest to destroy the One 
Ring is the only hope for the end of the Dark Lords reign!



  [img]http://img834.imageshack.us/img834/8189/casth.png[/img]



Alan Howard...................: The Ring (VOICE)

Elijah Wood...................: Frodo Baggins (VOICE)

Noel Appleby..................: Everard Proudfoot (VOICE)

Sean Astin....................: Samwise 'Sam' Gamgee (VOICE)

Sala Baker....................: Sauron (VOICE)

Sean Bean.....................: Boromir (VOICE)

Cate Blanchett................: Galadriel (VOICE)

Orlando Bloom.................: Legolas Greenleaf (VOICE)

Billy Boyd....................: Peregrin 'Pippin' Took (VOICE)

Marton Csokas.................: Celeborn (VOICE)

Megan Edwards.................: Mrs. Proudfoot (VOICE)

Michael Elsworth..............: Gondorian Archivist (VOICE)

Mark Ferguson.................: Gil-Galad (VOICE)

Ian Holm......................: Bilbo Baggins (VOICE)

Christopher Lee...............: Saruman (VOICE)



  [img]http://img821.imageshack.us/img821/3632/55622935752358453221.gif[/img]

Budget: $93,000,000 (estimated)
Opening Weekend: $66,114,741 (USA) (23 December 2001) (3359 Screens)
Gross: $870,761,744 (Worldwide) (2002)



  [img]http://img339.imageshack.us/img339/4868/zvbzx21.png[/img]



Title............................: The Fellowship of the Ring (2001) BDRip 720p(6CH~AC3)[Dual-Audio][Eng-Hindi]~[FIRST ON NET~[MEGUIL & HD-KING]
Genre............................: Action | Adventure | Drama | Fantasy
Plot Keys Word...................: Ring | Hobbit | Doom | Middle Earth | Quest  |
Official Sites...................: http://www.lordoftherings.net/
WiKiPeDiA........................: http://en.wikipedia.org/wiki/The_Lord_of_the_Rings:_The_Fellowship_of_the_Ring
Directer.........................: Peter Jackson
Writer...........................: J.R.R. Tolkien (novel), Fran Walsh (screenplay),
IMDB.............................: http://www.imdb.com/title/tt0120737/
year.............................: 19 December 2001 (USA)
User Rating......................: 8.8/10 (213,128 votes) 4,837 reviews | Critics: 235 reviews Metascore: 92/100  
VIDEO Source.....................: 1080p BluRay x264 CHDbits
File size........................: 3.51 GiB
Run time.........................: 3h 48mn (Special Extended Blu-Ray Edition)
Languages........................: English,Hindi
Subtittle........................: English
Ripper...........................: [MEGUIL & HD-KING]




  [img]http://img41.imageshack.us/img41/241/windowsmediaplayerfile.png[/img]



Video

ID                               : 1
Format                           : AVC
Format/Info                      : Advanced Video Codec
Format profile                   : High@L4.1
Format settings, CABAC           : Yes
Format settings, ReFrames        : 4 frames
Muxing mode                      : Header stripping
Codec ID                         : V_MPEG4/ISO/AVC
Duration                         : 3h 48mn
Nominal bit rate                 : 1 459 Kbps
Width                            : 1 280 pixels
Height                           : 534 pixels
Display aspect ratio             : 2.40:1
Frame rate                       : 23.976 fps
Color space                      : YUV
Chroma subsampling               : 4:2:0
Bit depth                        : 8 bits
Scan type                        : Progressive
Bits/(Pixel*Frame)               : 0.089
Title                            : RIPPER~[MEGUIL & HD-KING]
Writing library                  : x264 core 114 r1924 08d04a4
Encoding settings                : cabac=1 / ref=3 / deblock=1:0:0 /



  [img]http://img13.imageshack.us/img13/5307/2l3ravv.png[/img]


Audio #1

ID                               : 2
Format                           : AAC
Format/Info                      : Advanced Audio Codec
Format profile                   : LC
Codec ID                         : A_AAC
Duration                         : 3h 48mn
Channel(s)                       : 6 channels
Channel positions                : Front: L C R, Side: L R, LFE
Sampling rate                    : 48.0 KHz
Compression mode                 : Lossy
Title                            : RIPPER~[MEGUIL & HD-KING]
Language                         : English



  [img]http://img13.imageshack.us/img13/5307/2l3ravv.png[/img]



Audio #2
ID                               : 3
Format                           : AC-3
Format/Info                      : Audio Coding 3
Mode extension                   : CM (complete main)
Muxing mode                      : Header stripping
Codec ID                         : A_AC3
Duration                         : 3h 48mn
Bit rate mode                    : Constant
Bit rate                         : 448 Kbps
Channel(s)                       : 6 channels
Channel positions                : Front: L C R, Side: L R, LFE
Sampling rate                    : 48.0 KHz
Bit depth                        : 16 bits
Compression mode                 : Lossy
Stream size                      : 731 MiB (20%)
Title                            : RIPPER~[MEGUIL & HD-KING]
Language                         : Hindi



  [img]http://img842.imageshack.us/img842/7996/ogtw21.gif[/img]


[img]http://img32.imageshack.us/img32/127/001gdrd.jpg[/img]
[img]http://img546.imageshack.us/img546/9271/002xvb.jpg[/img]
[img]http://img688.imageshack.us/img688/4951/003umty.jpg[/img]
[img]http://img808.imageshack.us/img808/7215/004oz.jpg[/img]
[img]http://img855.imageshack.us/img855/6286/005eq.jpg[/img]




The Tow Towers (2002) BDRip 720p (6CH~AC3)[Dual-Audio][Eng-Hindi]~[FIRST ON NET]~[MEGUIL & HD-KING]


[img]http://img59.imageshack.us/img59/3964/lotr2002cover.jpg[/img]



  [img]http://img684.imageshack.us/img684/5769/plotjq.png[/img]



Release : The Two Towers (2002) BDRip 720p (6CH~AC3)[Dual-Audio][Eng-Hindi]~[FIRST ON NET]~[MEGUIL & HD-KING]

Release Date:  18 December 2002 (USA)

Format: Matroska

Format version: Version 2

File size: 3.61 GiB

Overall bit rate: 2 196 Kbps  

Release Length: 3h 55mn (Special Extended Blu-Ray Edition)

Tagline: The power of darkness grows...


Storyline
Sauron's forces increase. His allies grow. The Ringwraiths return in an even more frightening 
form. Saruman's army of Uruk Hai is ready to launch an assault against Aragorn and the 
people of Rohan. Yet, the Fellowship is broken and Boromir is dead. For the little hope that is 
left, Frodo and Sam march on into Mordor, unprotected. A number of new allies join with 
Aragorn, Gimli, Legolas, Pippin and Merry. And they must defend Rohan and attack Isengard. 
Yet, while all this is going on, Sauron's troops mass toward the City of Gondor, for the War



  [img]http://img339.imageshack.us/img339/4868/zvbzx21.png[/img]



Bruce Allpress...................: Aldor (VOICE)

Sean Astin.......................: Samwise 'Sam' Gamgee (VOICE)

John Bach........................: Madril (VOICE)

Sala Baker.......................: Man Flesh Uruk (VOICE)

Cate Blanchett...................: Galadriel (VOICE)

Orlando Bloom....................: Legolas Greenleaf (VOICE)

Billy Boyd.......................: Peregrin 'Pippin' Took (VOICE)

Jed Brophy.......................: Sharku / Snaga (VOICE)

Sam Comery.......................: Éothain (VOICE)

Brad Dourif......................: Grima Wormtongue (VOICE)

Calum Gittins....................: Haleth (VOICE)

Bernard Hill.....................: Theoden (VOICE)

Bruce Hopkins....................: Gamling (VOICE)

Paris Howe Strewe................: Théodred - Prince of Rohan (VOICE)

Christopher Lee..................: Saruman the White (VOICE)


  
  [img]http://img821.imageshack.us/img821/3632/55622935752358453221.gif[/img]

Budget: $94,000,000 (estimated)
Opening Weekend: €1,403,000 (Netherlands) (21 December 2002) (148 Screens)
Gross: $920,400,000 (Worldwide) (8 November 2003)



  [img]http://img339.imageshack.us/img339/4868/zvbzx21.png[/img]



Title............................: The Fellowship of the Ring (2001) BDRip 720p(6CH~AC3)[Dual-Audio][Eng-Hindi]~[FIRST ON NET~[MEGUIL & HD-KING]
Genre............................: Action | Adventure | Drama | Fantasy
Plot Keys Word...................: Ring | Army | Mission | Hope | Tower 
Official Sites...................: http://www.lordoftherings.net/
WiKiPeDiA........................: http://en.wikipedia.org/wiki/The_Lord_of_the_Rings:_The_Two_Towers
Directer.........................: Peter Jackson
Writer...........................: J.R.R. Tolkien (novel), Fran Walsh (screenplay),
IMDB.............................: http://www.imdb.com/title/tt0167261/
year.............................: 18 December 2002 (USA)
User Rating......................: 8.7/10 ( 399,123 votes)  2,335 reviews | Critics: 241 reviews Metascore: 88/100  
VIDEO Source.....................: 1080p BluRay x264 CHDbits
File size........................: 3.61 GiB
Run time.........................: 3h 55mn (Special Extended Blu-Ray Edition)
Languages........................: English,Hindi
Subtittle........................: English
Ripper...........................: [MEGUIL & HD-KING]




  [img]http://img41.imageshack.us/img41/241/windowsmediaplayerfile.png[/img]



Video
ID                               : 1
Format                           : AVC
Format/Info                      : Advanced Video Codec
Format profile                   : High@L4.1
Format settings, CABAC           : Yes
Format settings, ReFrames        : 4 frames
Muxing mode                      : Header stripping
Codec ID                         : V_MPEG4/ISO/AVC
Duration                         : 3h 55mn
Nominal bit rate                 : 1 462 Kbps
Width                            : 1 280 pixels
Height                           : 536 pixels
Display aspect ratio             : 2.40:1
Frame rate                       : 23.976 fps
Color space                      : YUV
Chroma subsampling               : 4:2:0
Bit depth                        : 8 bits
Scan type                        : Progressive
Bits/(Pixel*Frame)               : 0.089
Title                            : RIPPER~[MEGUIL & HD-KING]
Writing library                  : x264 core 114 r1924 08d04a4
Encoding settings                : cabac=1 / ref=3 / deblock=1:0:0/



  [img]http://img13.imageshack.us/img13/5307/2l3ravv.png[/img]



Audio #1
ID                               : 2
Format                           : AAC
Format/Info                      : Advanced Audio Codec
Format profile                   : LC
Codec ID                         : A_AAC
Duration                         : 3h 55mn
Channel(s)                       : 6 channels
Channel positions                : Front: L C R, Side: L R, LFE
Sampling rate                    : 48.0 KHz
Compression mode                 : Lossy
Title                            : RIPPER~[MEGUIL & HD-KING]
Language                         : English



  [img]http://img13.imageshack.us/img13/5307/2l3ravv.png[/img]



Audio #2
ID                               : 3
Format                           : AC-3
Format/Info                      : Audio Coding 3
Mode extension                   : CM (complete main)
Muxing mode                      : Header stripping
Codec ID                         : A_AC3
Duration                         : 3h 55mn
Bit rate mode                    : Constant
Bit rate                         : 448 Kbps
Channel(s)                       : 6 channels
Channel positions                : Front: L C R, Side: L R, LFE
Sampling rate                    : 48.0 KHz
Bit depth                        : 16 bits
Compression mode                 : Lossy
Stream size                      : 754 MiB (20%)
Title                            : RIPPER~[MEGUIL & HD-KING]
Language                         : Hindi





  [img]http://img842.imageshack.us/img842/7996/ogtw21.gif[/img]



[img]http://img600.imageshack.us/img600/4624/part21.jpg[/img]
[img]http://img192.imageshack.us/img192/7971/part22.jpg[/img]
[img]http://img217.imageshack.us/img217/1843/part23.jpg[/img]
[img]http://img109.imageshack.us/img109/5664/part24.jpg[/img]
[img]http://img834.imageshack.us/img834/7285/part25.jpg[/img]




The Return of the King (2003) BDRip 720p (6CH~AC3)[Dual-Audio][Eng-Hindi]~[FIRST ON NET]~[MEGUIL & HD-KING]


[img]http://img829.imageshack.us/img829/7472/lotr2003cover.jpg[/img]




  [img]http://img684.imageshack.us/img684/5769/plotjq.png[/img]




Release: The Return of the King (2003) BDRip 720p (6CH~AC3)[Dual-Audio][Eng-Hindi]~[FIRST ON NET]~[MEGUIL & HD-KING]

Release Date: 19 December 2001 (USA)

Format: Matroska

Format version: Version 2

File size: 4.04 GiB
  
Release Length: 4h 23mn (Special Extended Blu-Ray Edition)

Tagline: There can be no triumph without loss.

Storyline
While Frodo & Sam continue to approach Mount Doom to destroy the One Ring, unaware of 
the path Gollum is leading them, the former Fellowship aid Rohan & Gondor in a great battle 
in the Pelennor Fields, Minas Tirith and the Black Gates as Sauron wages his last war against


  [img]http://img834.imageshack.us/img834/8189/casth.png[/img]



Noel Appleby...................: Everard Proudfoot (VOICE)

Alexandra Astin................: Elanor Gamgee (VOICE)

Sean Astin.....................: Sam (VOICE)

David Aston....................: Gondorian Soldier 3 (VOICE)

John Bach......................: Madril (VOICE)

Sean Bean......................: Boromir (VOICE)

Cate Blanchett.................: Galadriel (VOICE)

Orlando Bloom..................: Legolas (VOICE)

Billy Boyd.....................: Pippin (VOICE)

Sadwyn Brophy..................: Eldarion (VOICE)

Alistair Browning..............: Damrod (VOICE)

Marton Csokas..................: Celeborn (VOICE)

Richard Edge...................: Gondorian Soldier 1 (VOICE)

Jason Fitch....................: Uruk 2 (VOICE)

Bernard Hill...................: Theoden (VOICE)



  [img]http://img821.imageshack.us/img821/3632/55622935752358453221.gif[/img]

Budget: $94,000,000 (estimated)
Opening Weekend: $72,629,713 (USA) (19 December 2003) (3703 Screens)
Gross: $1,118,888,979 (Worldwide) (2004)




  [img]http://img339.imageshack.us/img339/4868/zvbzx21.png[/img]




Title............................: The Return of the King (2003) BDRip 720p (6CH~AC3)[Dual-Audio][Eng-Hindi]~[FIRST ON NET]~[MEGUIL & HD-KING]
Genre............................: Action | Adventure | Drama | Fantasy
Plot Keys Word...................:  Ring | Battle | Middle Earth | King | Eye  | 
Official Sites...................: http://www.lordoftherings.net/
WiKiPeDiA........................: http://en.wikipedia.org/wiki/The_Lord_of_the_Rings:_The_Return_of_the_King
Directer.........................: Peter Jackson
Writer...........................: J.R.R. Tolkien (novel), Fran Walsh (screenplay),
IMDB.............................: http://www.imdb.com/title/tt0167260/
year.............................: 17 December 2003 (USA)
User Rating......................: 8.8/10 (446,984 votes) 2,938 reviews | Critics: 269 reviews Metascore: 94/100  
VIDEO Source.....................: 1080p BluRay x264 CHDbits
File size........................: 4.04 GiB
Run time.........................: 4h 23mn (Special Extended Blu-Ray Edition)
Languages........................: English,Hindi
Subtittle........................: English
Ripper...........................: [MEGUIL & HD-KING]




  [img]http://img41.imageshack.us/img41/241/windowsmediaplayerfile.png[/img]



Video
ID                               : 1
Format                           : AVC
Format/Info                      : Advanced Video Codec
Format profile                   : High@L4.1
Format settings, CABAC           : Yes
Format settings, ReFrames        : 4 frames
Muxing mode                      : Header stripping
Codec ID                         : V_MPEG4/ISO/AVC
Duration                         : 4h 23mn
Nominal bit rate                 : 1 481 Kbps
Width                            : 1 280 pixels
Height                           : 532 pixels
Display aspect ratio             : 2.40:1
Frame rate                       : 23.976 fps
Color space                      : YUV
Chroma subsampling               : 4:2:0
Bit depth                        : 8 bits
Scan type                        : Progressive
Bits/(Pixel*Frame)               : 0.091
Title                            : RIPPER~[MEGUIL & HD-KING]
Writing library                  : x264 core 114 r1924 08d04a4
Encoding settings                : cabac=1 / ref=3 / deblock=1:0:0 


  
  [img]http://img13.imageshack.us/img13/5307/2l3ravv.png[/img]



Audio #1
ID                               : 2
Format                           : AAC
Format/Info                      : Advanced Audio Codec
Format profile                   : LC
Codec ID                         : A_AAC
Duration                         : 4h 23mn
Channel(s)                       : 6 channels
Channel positions                : Front: L C R, Side: L R, LFE
Sampling rate                    : 48.0 KHz
Compression mode                 : Lossy
Title                            : RIPPER~[MEGUIL & HD-KING]
Language                         : English



  [img]http://img13.imageshack.us/img13/5307/2l3ravv.png[/img]



Audio #2
ID                               : 3
Format                           : AC-3
Format/Info                      : Audio Coding 3
Mode extension                   : CM (complete main)
Muxing mode                      : Header stripping
Codec ID                         : A_AC3
Duration                         : 4h 23mn
Bit rate mode                    : Constant
Bit rate                         : 448 Kbps
Channel(s)                       : 6 channels
Channel positions                : Front: L C R, Side: L R, LFE
Sampling rate                    : 48.0 KHz
Bit depth                        : 16 bits
Compression mode                 : Lossy
Stream size                      : 843 MiB (20%)
Title                            : RIPPER~[MEGUIL & HD-KING]
Language                         : Hindi




  [img]http://img842.imageshack.us/img842/7996/ogtw21.gif[/img]


[img]http://img94.imageshack.us/img94/6034/part31.jpg[/img]
[img]http://img837.imageshack.us/img837/7041/part32.jpg[/img]
[img]http://img405.imageshack.us/img405/2462/parat33.jpg[/img]
[img]http://img807.imageshack.us/img807/1615/part34.jpg[/img]
[img]http://img21.imageshack.us/img21/6110/part35q.jpg[/img]



Download Sample From Here all LOTR parts





[img]http://img375.imageshack.us/img375/7883/enjoyo.png[/img]


[img]http://img443.imageshack.us/img443/444/numberoneg.gif[/img]
[img]http://img411.imageshack.us/img411/5893/phpthumbgeneratedthumbnw.gif[/img]

[img]http://img408.imageshack.us/img408/4206/slqp2p1.gif[/img]



